<?xml version="1.0" encoding="utf-8"?>
<!-- Generator: Adobe Illustrator 23.0.0, SVG Export Plug-In . SVG Version: 6.00 Build 0)  -->
<svg version="1.1" id="Layer_1" xmlns="http://www.w3.org/2000/svg" xmlns:xlink="http://www.w3.org/1999/xlink" x="0px" y="0px"
	 viewBox="0 0 95.75 133.43" style="enable-background:new 0 0 95.75 133.43;" xml:space="preserve">
<style type="text/css">
	.st0{fill:#D1EBFA;}
	.st1{fill:#5598B5;}
	.st2{fill:#004A7C;}
</style>
<g>
	<path class="st0" d="M82.63,67.57l-0.02,0.23l0.18,0.08l0.29-0.11L82.63,67.57z"/>
	<path class="st0" d="M90.28,52.12l-7.67,0.77l-1.49,1.16l-2.22-5.88l-2.66-7.04l-19.74-7.11h-8.37v16.57l-4.29,8.82l4.29,7.75
		v16.58l-4.29,8.81l4.29,7.76v16.57l-3.23,6.64l0.01,0.01v4.1l3.22,5.83l9.03-2.2l7.09-6.68l0.62-5.06l17.48-43.29l0.82-8.42
		l-0.07-0.03l-0.29,0.11l-0.18-0.08l0.02-0.23l0.45,0.2l6.94-2.59l4.2-6.64l1.53-7.45L90.28,52.12z M55.3,121.99l-1.98,1.95
		l-1.98,4.88v-5.3l2.61-2.86h5.94L55.3,121.99z"/>
	<path class="st0" d="M48.12,34.01v16.57l4.29-7.76L48.12,34.01z M48.12,83.74l4.29-7.76l-4.29-8.82V83.74z M48.12,116.88l4.29-7.76
		l-4.29-8.81V116.88z"/>
	<polygon class="st0" points="83.08,67.77 82.78,67.88 82.61,67.81 82.63,67.57 	"/>
	<polygon class="st1" points="94.2,31.97 91.79,43.56 81.45,51.07 67.67,54.79 61.05,48.53 65.35,37.74 79.25,36.75 82.13,33.26 
		82.17,28.34 75.81,14.57 76.26,8.07 81.8,1.59 86.85,0.06 84.08,3.37 81.33,9.56 84.22,15.24 92.71,22.69 	"/>
	<polygon class="st2" points="55.62,83.42 58.34,80.63 64.62,80.34 69.3,82.76 64.46,85.42 58.43,85.69 	"/>
	<path class="st1" d="M52.41,75.98l-4.29-8.82l-4.29-7.75l4.29-8.82l4.29-7.76l-4.29-8.81h-8.37l-19.74,7.11l-2.66,7.04L15,54.38
		l-1.91-1.49l-7.67-0.77l-5.47-1.03l1.53,7.45l4.2,6.64l7.23,2.71l0.18-0.08l0.82,8.42l17.48,43.29l0.62,5.06l7.09,6.68l9.03,2.2
		l-3.22-5.83v1.2l-1.98-4.88l-1.98-1.95l-4.59-1.32h5.94l2.6,2.85l3.23-6.64l4.29-7.76l-4.29-8.81l-4.29-7.76l4.29-8.81L52.41,75.98
		z"/>
	<polygon class="st0" points="35.2,48.54 28.57,54.78 14.79,51.08 4.44,43.56 2.04,31.97 3.53,22.69 12.02,15.24 14.91,9.56 
		12.16,3.38 9.39,0.05 14.44,1.59 19.98,8.07 20.43,14.57 14.07,28.34 14.11,33.25 16.98,36.74 30.9,37.75 	"/>
	<polygon class="st2" points="40.62,83.42 37.9,80.63 31.62,80.34 26.94,82.76 31.78,85.42 37.82,85.69 	"/>
	<polygon class="st1" points="14.07,28.34 14.11,33.25 8.33,37.84 2.04,31.97 3.53,22.69 12.02,15.24 14.91,9.56 12.16,3.38 
		9.39,0.05 14.44,1.59 19.98,8.07 20.43,14.57 	"/>
	<polygon class="st0" points="82.18,28.34 82.14,33.25 87.91,37.84 94.2,31.97 92.71,22.69 84.22,15.24 81.34,9.56 84.09,3.38 
		86.85,0.05 81.81,1.59 76.26,8.07 75.81,14.57 	"/>
</g>
</svg>
