<?xml version="1.0" encoding="utf-8"?>
<!-- Generator: Adobe Illustrator 23.0.0, SVG Export Plug-In . SVG Version: 6.00 Build 0)  -->
<svg version="1.1" id="Layer_1" xmlns="http://www.w3.org/2000/svg" xmlns:xlink="http://www.w3.org/1999/xlink" x="0px" y="0px"
	 viewBox="0 0 80.5 87.9" style="enable-background:new 0 0 80.5 87.9;" xml:space="preserve">
<style type="text/css">
	.st0{fill:#D1EBFA;}
</style>
<g>
	<path class="st0" d="M68.5,41.2v37.7c0,0.9-0.8,1.7-1.7,1.7H49.3c-0.9,0-1.7-0.8-1.7-1.7V60.7c0-0.9-0.8-1.7-1.7-1.7H35
		c-0.9,0-1.7,0.8-1.7,1.7v18.2c0,0.9-0.8,1.7-1.7,1.7H14.2c-0.9,0-1.7-0.8-1.7-1.7V41.2c0-0.9,0.8-1.7,1.7-1.7h52.5
		C67.7,39.5,68.5,40.2,68.5,41.2z"/>
	<path class="st0" d="M7.2,44.5h66.5c0.8,0,1.2-1,0.7-1.6L41.2,9.2c-0.4-0.4-1-0.4-1.3,0L6.6,42.9C6,43.5,6.4,44.5,7.2,44.5z"/>
	<path class="st0" d="M66.8,16.8h-7.1c-0.9,0-1.7,0.8-1.7,1.7v17.8c0,0.9,0.8,1.7,1.7,1.7h7.1c0.9,0,1.7-0.8,1.7-1.7V18.5
		C68.5,17.6,67.7,16.8,66.8,16.8z"/>
</g>
</svg>
