<?xml version="1.0" encoding="utf-8"?>
<!-- Generator: Adobe Illustrator 23.0.0, SVG Export Plug-In . SVG Version: 6.00 Build 0)  -->
<svg version="1.1" id="Layer_1" xmlns="http://www.w3.org/2000/svg" xmlns:xlink="http://www.w3.org/1999/xlink" x="0px" y="0px"
	 viewBox="0 0 40 40" style="enable-background:new 0 0 40 40;" xml:space="preserve">
<style type="text/css">
	.st0{fill:#D2EBFA;}
</style>
<g>
	<path class="st0" d="M33.1,0H7.5C7.2,0,7,0.3,7,0.6v38.7c0,0.3,0.3,0.6,0.6,0.6h18.6c0.3,0,0.6-0.3,0.6-0.6v-6.1
		c0-0.3,0.3-0.6,0.6-0.6h5.9c0.3,0,0.6-0.3,0.6-0.6V0.6C33.6,0.3,33.4,0,33.1,0z M9.2,1.6h22.3v0.8H9.2C9.2,2.4,9.2,1.6,9.2,1.6z
		 M9.2,4.6h22.3v0.8H9.2V4.6z M29.1,13.2c-0.1,0.1-0.3,0.2-0.4,0.1l-3.3-2.6c-0.1-0.1-0.1-0.3,0-0.4c0.7-0.6,1.7-0.6,2.4-0.1
		l0.9,0.7c0.4,0.3,0.6,0.8,0.7,1.2C29.3,12.5,29.3,12.9,29.1,13.2z M31.4,16.5v0.8h-2.3v-0.8H31.4z M27.9,13.7
		c0.3,0.2,0.3,0.6,0.1,0.9L17.8,27.4c-0.2,0.3-0.6,0.3-0.9,0.1l-2.7-2.2c-0.3-0.2-0.3-0.6-0.1-0.9l10.2-12.8
		c0.2-0.3,0.6-0.3,0.9-0.1L27.9,13.7z M9.2,20.4v-0.8h5.1v0.8H9.2z M11.7,22.4v0.8H9.2v-0.8H11.7z M17,16.5v0.8H9.2v-0.8H17z
		 M9.2,14.3v-0.8h10.1v0.8H9.2z M13.2,26c0-0.2,0.3-0.3,0.4-0.2l2.9,2.3c0.2,0.1,0.1,0.4-0.1,0.5l-3.1,0.9c-0.2,0-0.4-0.1-0.3-0.3
		L13.2,26z M21.9,11.4H9.2v-0.8h12.7V11.4z M9.1,34.4h15.7v0.8H9.1V34.4z M24.8,38.2H9.1v-0.8h15.7V38.2z M24.8,32.2H9.1v-0.8h15.7
		V32.2z M31.4,29.3H20.8v-0.8h10.7V29.3z M31.4,26.3h-8.1v-0.8h8.1V26.3z M31.4,23.4h-6.3v-0.8h6.3V23.4z M31.4,20.4h-4.2v-0.8h4.2
		V20.4z M31.5,8.4H9.2V7.5h22.3V8.4z"/>
	<path class="st0" d="M27.9,39.1v-5.3c0-0.1,0.1-0.1,0.1-0.1h5.3c0.1,0,0.2,0.1,0.1,0.2l-5.3,5.3C28,39.3,27.9,39.2,27.9,39.1z"/>
</g>
</svg>
