<?xml version="1.0" encoding="utf-8"?>
<!-- Generator: Adobe Illustrator 23.0.0, SVG Export Plug-In . SVG Version: 6.00 Build 0)  -->
<svg version="1.1" id="Layer_1" xmlns="http://www.w3.org/2000/svg" xmlns:xlink="http://www.w3.org/1999/xlink" x="0px" y="0px"
	 viewBox="0 0 20 20" style="enable-background:new 0 0 20 20;" xml:space="preserve">
<style type="text/css">
	.st0{fill:#5698B5;}
</style>
<g>
	<path class="st0" d="M17.8,9v10.5c0,0.3-0.2,0.5-0.5,0.5h-4.8c-0.3,0-0.5-0.2-0.5-0.5v-5.1c0-0.3-0.2-0.5-0.5-0.5H8.5
		c-0.3,0-0.5,0.2-0.5,0.5v5.1c0,0.3-0.2,0.5-0.5,0.5H2.7c-0.3,0-0.5-0.2-0.5-0.5V9c0-0.3,0.2-0.5,0.5-0.5h14.6
		C17.6,8.5,17.8,8.8,17.8,9z"/>
	<path class="st0" d="M0.8,9.9h18.5c0.2,0,0.3-0.3,0.2-0.4l-9.2-9.4C10.1,0,9.9,0,9.8,0.1L0.6,9.5C0.4,9.7,0.5,9.9,0.8,9.9z"/>
	<path class="st0" d="M17.3,2.2h-2c-0.3,0-0.5,0.2-0.5,0.5v4.9c0,0.3,0.2,0.5,0.5,0.5h2c0.3,0,0.5-0.2,0.5-0.5V2.7
		C17.8,2.5,17.6,2.2,17.3,2.2z"/>
</g>
</svg>
