<?xml version="1.0" encoding="utf-8"?>
<!-- Generator: Adobe Illustrator 23.0.1, SVG Export Plug-In . SVG Version: 6.00 Build 0)  -->
<svg version="1.1" id="Layer_1" xmlns="http://www.w3.org/2000/svg" xmlns:xlink="http://www.w3.org/1999/xlink" x="0px" y="0px"
	 viewBox="0 0 40 40" style="enable-background:new 0 0 40 40;" xml:space="preserve">
<style type="text/css">
	.st0{fill:#D2EBFA;}
</style>
<g>
	<path class="st0" d="M35.5,18.1v21c0,0.5-0.4,0.9-0.9,0.9h-9.7c-0.5,0-0.9-0.4-0.9-0.9V28.9c0-0.5-0.4-0.9-0.9-0.9h-6.1
		c-0.5,0-0.9,0.4-0.9,0.9v10.1c0,0.5-0.4,0.9-0.9,0.9H5.3c-0.5,0-0.9-0.4-0.9-0.9v-21c0-0.5,0.4-0.9,0.9-0.9h29.2
		C35.1,17.2,35.5,17.6,35.5,18.1z"/>
	<path class="st0" d="M1.4,20h37c0.5,0,0.7-0.6,0.4-0.9L20.3,0.3c-0.2-0.2-0.5-0.2-0.7,0L1,19.1C0.7,19.4,1,20,1.4,20z"/>
	<path class="st0" d="M34.6,4.5h-4c-0.5,0-0.9,0.4-0.9,0.9v9.9c0,0.5,0.4,0.9,0.9,0.9h4c0.5,0,0.9-0.4,0.9-0.9V5.5
		C35.5,5,35.1,4.5,34.6,4.5z"/>
</g>
</svg>
