<?xml version="1.0" encoding="utf-8"?>
<!-- Generator: Adobe Illustrator 23.0.0, SVG Export Plug-In . SVG Version: 6.00 Build 0)  -->
<svg version="1.1" id="Layer_1" xmlns="http://www.w3.org/2000/svg" xmlns:xlink="http://www.w3.org/1999/xlink" x="0px" y="0px"
	 viewBox="0 0 40 40" style="enable-background:new 0 0 40 40;" xml:space="preserve">
<style type="text/css">
	.st0{fill:#D2EBFA;}
</style>
<g>
	<path class="st0" d="M31,3.8V0.1H5.8C5,0.1,4.3,0.8,4.3,1.6v36.8C4.3,39.3,5,40,5.8,40H31v-3c-1.8,0-2.5-1.1-2.5-1.1l0.5-0.6
		c0.5,0.7,1.3,0.9,2,0.9v-3.9c-1.8,0-2.5-1.1-2.5-1.1l0.5-0.6c0.5,0.7,1.3,0.9,2,0.9v-3.9c-1.8,0-2.5-1.1-2.5-1.1l0.5-0.6
		c0.5,0.7,1.3,0.9,2,0.9v-3.9c-1.8,0-2.5-1.1-2.5-1.1l0.5-0.6c0.5,0.7,1.3,0.9,2,0.9v-3.9c-1.8,0-2.5-1.1-2.5-1.1l0.5-0.6
		c0.5,0.7,1.3,0.9,2,0.9v-3.9c-1.8,0-2.5-1.1-2.5-1.1l0.5-0.6c0.5,0.7,1.3,0.9,2,0.9V9.2c-1.8,0-2.5-1.1-2.5-1.1L29,7.5
		c0.5,0.7,1.3,0.9,2,0.9V4.5c-1.8,0-2.5-1.1-2.5-1.1L29,2.9C29.5,3.6,30.3,3.8,31,3.8z M11.8,35.9c-2.8,0-4.1-2.5-4.1-5.9
		c0-3.3,1.4-5.9,4.2-5.9c2,0,3.5,1.3,3.6,4h-1.8c-0.1-1-0.5-2-1.7-2c-1.4,0-2.3,1.4-2.3,3.9c0,2.6,0.9,3.9,2.4,3.9
		c1.1,0,1.9-0.6,2.5-1.3l1,1.4C14.4,35.4,13.3,35.9,11.8,35.9z M21.1,35.7H19l-2.9-11.4H18l2.1,8.8l2.2-8.8h1.8L21.1,35.7z"/>
	<path class="st0" d="M37,1.5v37.1c0,0.8-0.6,1.4-1.4,1.4h-3.4V0.1h3.4C36.4,0.1,37,0.7,37,1.5z"/>
</g>
</svg>
