<?xml version="1.0" encoding="utf-8"?>
<!-- Generator: Adobe Illustrator 23.0.0, SVG Export Plug-In . SVG Version: 6.00 Build 0)  -->
<svg version="1.1" id="Layer_1" xmlns="http://www.w3.org/2000/svg" xmlns:xlink="http://www.w3.org/1999/xlink" x="0px" y="0px"
	 viewBox="0 0 20 20" style="enable-background:new 0 0 20 20;" xml:space="preserve">
<style type="text/css">
	.st0{fill:#5898B5;}
</style>
<g>
	<path class="st0" d="M16.4,0.1H3.6c-0.2,0-0.3,0.1-0.3,0.3v19.3c0,0.2,0.1,0.3,0.3,0.3h9.3c0.2,0,0.3-0.1,0.3-0.3v-3.1
		c0-0.2,0.1-0.3,0.3-0.3h2.9c0.2,0,0.3-0.1,0.3-0.3V0.4C16.7,0.2,16.6,0.1,16.4,0.1z M4.5,0.9h11.1v0.4H4.5V0.9z M4.5,2.3h11.1v0.4
		H4.5V2.3z M14.4,6.6c0,0.1-0.1,0.1-0.2,0l-1.7-1.3c-0.1-0.1-0.1-0.1,0-0.2c0.3-0.3,0.8-0.3,1.2,0l0.4,0.4c0.2,0.2,0.3,0.4,0.3,0.6
		C14.5,6.3,14.5,6.5,14.4,6.6z M15.6,8.3v0.4h-1.2V8.3H15.6z M13.8,6.9c0.1,0.1,0.2,0.3,0.1,0.5l-5.1,6.4c-0.1,0.1-0.3,0.2-0.5,0.1
		l-1.4-1.1c-0.1-0.1-0.2-0.3-0.1-0.5L12,5.9c0.1-0.1,0.3-0.2,0.5-0.1L13.8,6.9z M4.5,10.3V9.9H7v0.4H4.5z M5.7,11.3v0.4H4.5v-0.4
		H5.7z M8.4,8.3v0.4H4.5V8.3H8.4z M4.5,7.2V6.8h5v0.4H4.5z M6.5,13c0-0.1,0.1-0.2,0.2-0.1l1.5,1.2c0.1,0.1,0.1,0.2-0.1,0.2l-1.5,0.4
		c-0.1,0-0.2-0.1-0.2-0.1L6.5,13z M10.8,5.7H4.5V5.3h6.4L10.8,5.7L10.8,5.7z M4.4,17.2h7.8v0.4H4.4V17.2z M12.3,19.1H4.5v-0.4h7.8
		V19.1z M12.3,16.2H4.5v-0.4h7.8V16.2z M15.6,14.7h-5.3v-0.4h5.3L15.6,14.7L15.6,14.7z M15.6,13.2h-4v-0.4h4.1L15.6,13.2L15.6,13.2z
		 M15.6,11.8h-3.2v-0.4h3.2V11.8z M15.6,10.3h-2.1V9.9h2.1V10.3z M15.6,4.2H4.5V3.8h11.1C15.6,3.8,15.6,4.2,15.6,4.2z"/>
	<path class="st0" d="M13.8,19.6V17c0,0,0-0.1,0.1-0.1h2.6c0.1,0,0.1,0.1,0.1,0.1l-2.6,2.6C13.9,19.7,13.8,19.7,13.8,19.6z"/>
</g>
</svg>
